<svg width="1024" height="1024" viewBox="0 0 1024 1024" fill="none" xmlns="http://www.w3.org/2000/svg">
<g clip-path="url(#clip0_7402_20579)">
<path d="M-20.0838 1038.05L1055.12 -37.1504M-31.1165 -28.617L1044.08 1046.58M-0.000108719 58.7979H1041.07M58.9499 -1.52588e-05L58.9498 1041.07M316.833 -1.52588e-05L316.833 1041.07M507.733 -1.52588e-05V1041.07M707.9 -1.52588e-05V1041.07M965.558 -1.52588e-05V1041.07M-0.000108719 313.869H1041.07M-0.000108719 507.733H1041.07M-0.000108719 707.167H1041.07M-0.000108719 965.215H1041.07M711.433 512C711.433 622.144 622.144 711.433 512 711.433C401.856 711.433 312.567 622.144 312.567 512C312.567 401.856 401.856 312.567 512 312.567C622.144 312.567 711.433 401.856 711.433 512ZM790.833 512C790.833 665.995 665.995 790.833 512 790.833C358.004 790.833 233.167 665.995 233.167 512C233.167 358.005 358.004 233.167 512 233.167C665.995 233.167 790.833 358.005 790.833 512ZM969.483 512C969.483 764.661 764.661 969.483 512 969.483C259.339 969.483 54.5166 764.661 54.5166 512C54.5166 259.339 259.339 54.5166 512 54.5166C764.661 54.5166 969.483 259.339 969.483 512Z" stroke="url(#paint0_linear_7402_20579)" stroke-opacity="0.18" stroke-width="6"/>
</g>
<defs>
<linearGradient id="paint0_linear_7402_20579" x1="307" y1="-57.5" x2="896" y2="977.5" gradientUnits="userSpaceOnUse">
<stop stop-color="white"/>
<stop offset="1" stop-color="white" stop-opacity="0.33"/>
</linearGradient>
<clipPath id="clip0_7402_20579">
<rect width="1024" height="1024" fill="white"/>
</clipPath>
</defs>
</svg>
